<?xml version="1.0" standalone="no"?><!DOCTYPE svg PUBLIC "-//W3C//DTD SVG 1.1//EN" "http://www.w3.org/Graphics/SVG/1.1/DTD/svg11.dtd"><svg xmlns="http://www.w3.org/2000/svg" viewBox="0 0 650 400" version="1.1"><clipPath id="box"><rect x="0" y="0" width="650" height="400" style="fill:none;stroke:none;" /></clipPath><g clip-path="url(#box)"><rect x="0.00" y="0.00" width="650.00" height="400.00" style="fill:#FFFFFF;stroke:none;" /><path d="M0.00 396.00 L650.00 396.00 M0.00 332.00 L650.00 332.00 M0.00 268.00 L650.00 268.00 M0.00 204.00 L650.00 204.00 M0.00 140.00 L650.00 140.00 M0.00 76.00 L650.00 76.00 M0.00 12.00 L650.00 12.00 M0.00 0.00 L0.00 400.00 M64.00 0.00 L64.00 400.00 M128.00 0.00 L128.00 400.00 M192.00 0.00 L192.00 400.00 M256.00 0.00 L256.00 400.00 M320.00 0.00 L320.00 400.00 M384.00 0.00 L384.00 400.00 M448.00 0.00 L448.00 400.00 M512.00 0.00 L512.00 400.00 M576.00 0.00 L576.00 400.00 M640.00 0.00 L640.00 400.00 " style="fill:none;stroke:#D0D0D0;stroke-width:1;" /><path d="M192.26 0.00 L192.26 400.00 " style="fill:none;stroke:#000000;stroke-width:1;" /><path d="M185.76 460.22 L198.76 460.22 M185.76 396.22 L198.76 396.22 M185.76 332.22 L198.76 332.22 M185.76 268.22 L198.76 268.22 M185.76 204.22 L198.76 204.22 M185.76 140.22 L198.76 140.22 M185.76 76.22 L198.76 76.22 M185.76 12.22 L198.76 12.22 " style="fill:none;stroke:#000000;stroke-width:1;" /><path d="M0.00 268.22 L650.00 268.22 " style="fill:none;stroke:#000000;stroke-width:1;" /><path d="M-63.74 261.72 L-63.74 274.72 M0.26 261.72 L0.26 274.72 M64.26 261.72 L64.26 274.72 M128.26 261.72 L128.26 274.72 M192.26 261.72 L192.26 274.72 M256.26 261.72 L256.26 274.72 M320.26 261.72 L320.26 274.72 M384.26 261.72 L384.26 274.72 M448.26 261.72 L448.26 274.72 M512.26 261.72 L512.26 274.72 M576.26 261.72 L576.26 274.72 M640.26 261.72 L640.26 274.72 " style="fill:none;stroke:#000000;stroke-width:1;" /><text x="200.3844815999999" y="334.7184992000005" text-anchor="start" style="font:10px Droid Sans,Trebuchet MS,Arial,Helvetica,sans-serif;stroke:none;fill:#000000">-2</text><text x="200.3844815999999" y="270.7184992000002" text-anchor="start" style="font:10px Droid Sans,Trebuchet MS,Arial,Helvetica,sans-serif;stroke:none;fill:#000000">0</text><text x="200.3844815999999" y="206.71849919999997" text-anchor="start" style="font:10px Droid Sans,Trebuchet MS,Arial,Helvetica,sans-serif;stroke:none;fill:#000000">2</text><text x="200.3844815999999" y="142.71849919999968" text-anchor="start" style="font:10px Droid Sans,Trebuchet MS,Arial,Helvetica,sans-serif;stroke:none;fill:#000000">4</text><text x="200.3844815999999" y="78.71849919999944" text-anchor="start" style="font:10px Droid Sans,Trebuchet MS,Arial,Helvetica,sans-serif;stroke:none;fill:#000000">6</text><text x="200.3844815999999" y="14.718499199999194" text-anchor="start" style="font:10px Droid Sans,Trebuchet MS,Arial,Helvetica,sans-serif;stroke:none;fill:#000000">8</text><text x="64.25948159999938" y="284.3434992000002" text-anchor="middle" style="font:10px Droid Sans,Trebuchet MS,Arial,Helvetica,sans-serif;stroke:none;fill:#000000">-4</text><text x="128.25948159999965" y="284.3434992000002" text-anchor="middle" style="font:10px Droid Sans,Trebuchet MS,Arial,Helvetica,sans-serif;stroke:none;fill:#000000">-2</text><text x="192.2594815999999" y="284.3434992000002" text-anchor="middle" style="font:10px Droid Sans,Trebuchet MS,Arial,Helvetica,sans-serif;stroke:none;fill:#000000">0</text><text x="256.2594816000002" y="284.3434992000002" text-anchor="middle" style="font:10px Droid Sans,Trebuchet MS,Arial,Helvetica,sans-serif;stroke:none;fill:#000000">2</text><text x="320.25948160000047" y="284.3434992000002" text-anchor="middle" style="font:10px Droid Sans,Trebuchet MS,Arial,Helvetica,sans-serif;stroke:none;fill:#000000">4</text><text x="384.2594816000007" y="284.3434992000002" text-anchor="middle" style="font:10px Droid Sans,Trebuchet MS,Arial,Helvetica,sans-serif;stroke:none;fill:#000000">6</text><text x="448.259481600001" y="284.3434992000002" text-anchor="middle" style="font:10px Droid Sans,Trebuchet MS,Arial,Helvetica,sans-serif;stroke:none;fill:#000000">8</text><text x="512.2594816000013" y="284.3434992000002" text-anchor="middle" style="font:10px Droid Sans,Trebuchet MS,Arial,Helvetica,sans-serif;stroke:none;fill:#000000">10</text><text x="576.2594816000015" y="284.3434992000002" text-anchor="middle" style="font:10px Droid Sans,Trebuchet MS,Arial,Helvetica,sans-serif;stroke:none;fill:#000000">12</text><text x="640.2594816000019" y="284.3434992000002" text-anchor="middle" style="font:10px Droid Sans,Trebuchet MS,Arial,Helvetica,sans-serif;stroke:none;fill:#000000">14</text><path d="M60.48 400.00 L60.48 400.00 L61.48 399.00 L62.48 398.00 L63.48 397.00 L64.48 396.00 L65.48 395.00 L66.48 394.00 L67.48 393.00 L68.48 392.00 L69.48 391.00 L70.48 390.00 L71.48 389.00 L72.48 388.00 L73.48 387.00 L74.48 386.00 L75.48 385.00 L76.48 384.00 L77.48 383.00 L78.48 382.00 L79.48 381.00 L80.48 380.00 L81.48 379.00 L82.48 378.00 L83.48 377.00 L84.48 376.00 L85.48 375.00 L86.48 374.00 L87.48 373.00 L88.48 372.00 L89.48 371.00 L90.48 370.00 L91.48 369.00 L92.48 368.00 L93.48 367.00 L94.48 366.00 L95.48 365.00 L96.48 364.00 L97.48 363.00 L98.48 362.00 L99.48 361.00 L100.48 360.00 L101.48 359.00 L102.48 358.00 L103.48 357.00 L104.48 356.00 L105.48 355.00 L106.48 354.00 L107.48 353.00 L108.48 352.00 L109.48 351.00 L110.48 350.00 L111.48 349.00 L112.48 348.00 L113.48 347.00 L114.48 346.00 L115.48 345.00 L116.48 344.00 L117.48 343.00 L118.48 342.00 L119.48 341.00 L120.48 340.00 L121.48 339.00 L122.48 338.00 L123.48 337.00 L124.48 336.00 L125.48 335.00 L126.48 334.00 L127.48 333.00 L128.48 332.00 L129.48 331.00 L130.48 330.00 L131.48 329.00 L132.48 328.00 L133.48 327.00 L134.48 326.00 L135.48 325.00 L136.48 324.00 L137.48 323.00 L138.48 322.00 L139.48 321.00 L140.48 320.00 L141.48 319.00 L142.48 318.00 L143.48 317.00 L144.48 316.00 L145.48 315.00 L146.48 314.00 L147.48 313.00 L148.48 312.00 L149.48 311.00 L150.48 310.00 L151.48 309.00 L152.48 308.00 L153.48 307.00 L154.48 306.00 L155.48 305.00 L156.48 304.00 L157.48 303.00 L158.48 302.00 L159.48 301.00 L160.48 300.00 L161.48 299.00 L162.48 298.00 L163.48 297.00 L164.48 296.00 L165.48 295.00 L166.48 294.00 L167.48 293.00 L168.48 292.00 L169.48 291.00 L170.48 290.00 L171.48 289.00 L172.48 288.00 L173.48 287.00 L174.48 286.00 L175.48 285.00 L176.48 284.00 L177.48 283.00 L178.48 282.00 L179.48 281.00 L180.48 280.00 L181.48 279.00 L182.48 278.00 L183.48 277.00 L184.48 276.00 L185.48 275.00 L186.48 274.00 L187.48 273.00 L188.48 272.00 L189.48 271.00 L190.48 270.00 L191.48 269.00 L192.48 268.00 L193.48 267.00 L194.48 266.00 L195.48 265.00 L196.48 264.00 L197.48 263.00 L198.48 262.00 L199.48 261.00 L200.48 260.00 L201.48 259.00 L202.48 258.00 L203.48 257.00 L204.48 256.00 L205.48 255.00 L206.48 254.00 L207.48 253.00 L208.48 252.00 L209.48 251.00 L210.48 250.00 L211.48 249.00 L212.48 248.00 L213.48 247.00 L214.48 246.00 L215.48 245.00 L216.48 244.00 L217.48 243.00 L218.48 242.00 L219.48 241.00 L220.48 240.00 L221.48 239.00 L222.48 238.00 L223.48 237.00 L224.48 236.00 L225.48 235.00 L226.48 234.00 L227.48 233.00 L228.48 232.00 L229.48 231.00 L230.48 230.00 L231.48 229.00 L232.48 228.00 L233.48 227.00 L234.48 226.00 L235.48 225.00 L236.48 224.00 L237.48 223.00 L238.48 222.00 L239.48 221.00 L240.48 220.00 L241.48 219.00 L242.48 218.00 L243.48 217.00 L244.48 216.00 L245.48 215.00 L246.48 214.00 L247.48 213.00 L248.48 212.00 L249.48 211.00 L250.48 210.00 L251.48 209.00 L252.48 208.00 L253.48 207.00 L254.48 206.00 L255.48 205.00 L256.48 204.00 L257.48 203.00 L258.48 202.00 L259.48 201.00 L260.48 200.00 L261.48 199.00 L262.48 198.00 L263.48 197.00 L264.48 196.00 L265.48 195.00 L266.48 194.00 L267.48 193.00 L268.48 192.00 L269.48 191.00 L270.48 190.00 L271.48 189.00 L272.48 188.00 L273.48 187.00 L274.48 186.00 L275.48 185.00 L276.48 184.00 L277.48 183.00 L278.48 182.00 L279.48 181.00 L280.48 180.00 L281.48 179.00 L282.48 178.00 L283.48 177.00 L284.48 176.00 L285.48 175.00 L286.48 174.00 L287.48 173.00 L288.48 172.00 L289.48 171.00 L290.48 170.00 L291.48 169.00 L292.48 168.00 L293.48 167.00 L294.48 166.00 L295.48 165.00 L296.48 164.00 L297.48 163.00 L298.48 162.00 L299.48 161.00 L300.48 160.00 L301.48 159.00 L302.48 158.00 L303.48 157.00 L304.48 156.00 L305.48 155.00 L306.48 154.00 L307.48 153.00 L308.48 152.00 L309.48 151.00 L310.48 150.00 L311.48 149.00 L312.48 148.00 L313.48 147.00 L314.48 146.00 L315.48 145.00 L316.48 144.00 L317.48 143.00 L318.48 142.00 L319.48 141.00 L320.48 140.00 L321.48 139.00 L322.48 138.00 L323.48 137.00 L324.48 136.00 L325.48 135.00 L326.48 134.00 L327.48 133.00 L328.48 132.00 L329.48 131.00 L330.48 130.00 L331.48 129.00 L332.48 128.00 L333.48 127.00 L334.48 126.00 L335.48 125.00 L336.48 124.00 L337.48 123.00 L338.48 122.00 L339.48 121.00 L340.48 120.00 L341.48 119.00 L342.48 118.00 L343.48 117.00 L344.48 116.00 L345.48 115.00 L346.48 114.00 L347.48 113.00 L348.48 112.00 L349.48 111.00 L350.48 110.00 L351.48 109.00 L352.48 108.00 L353.48 107.00 L354.48 106.00 L355.48 105.00 L356.48 104.00 L357.48 103.00 L358.48 102.00 L359.48 101.00 L360.48 100.00 L361.48 99.00 L362.48 98.00 L363.48 97.00 L364.48 96.00 L365.48 95.00 L366.48 94.00 L367.48 93.00 L368.48 92.00 L369.48 91.00 L370.48 90.00 L371.48 89.00 L372.48 88.00 L373.48 87.00 L374.48 86.00 L375.48 85.00 L376.48 84.00 L377.48 83.00 L378.48 82.00 L379.48 81.00 L380.48 80.00 L381.48 79.00 L382.48 78.00 L383.48 77.00 L384.48 76.00 L385.48 75.00 L386.48 74.00 L387.48 73.00 L388.48 72.00 L389.48 71.00 L390.48 70.00 L391.48 69.00 L392.48 68.00 L393.48 67.00 L394.48 66.00 L395.48 65.00 L396.48 64.00 L397.48 63.00 L398.48 62.00 L399.48 61.00 L400.48 60.00 L401.48 59.00 L402.48 58.00 L403.48 57.00 L404.48 56.00 L405.48 55.00 L406.48 54.00 L407.48 53.00 L408.48 52.00 L409.48 51.00 L410.48 50.00 L411.48 49.00 L412.48 48.00 L413.48 47.00 L414.48 46.00 L415.48 45.00 L416.48 44.00 L417.48 43.00 L418.48 42.00 L419.48 41.00 L420.48 40.00 L421.48 39.00 L422.48 38.00 L423.48 37.00 L424.48 36.00 L425.48 35.00 L426.48 34.00 L427.48 33.00 L428.48 32.00 L429.48 31.00 L430.48 30.00 L431.48 29.00 L432.48 28.00 L433.48 27.00 L434.48 26.00 L435.48 25.00 L436.48 24.00 L437.48 23.00 L438.48 22.00 L439.48 21.00 L440.48 20.00 L441.48 19.00 L442.48 18.00 L443.48 17.00 L444.48 16.00 L445.48 15.00 L446.48 14.00 L447.48 13.00 L448.48 12.00 L449.48 11.00 L450.48 10.00 L451.48 9.00 L452.48 8.00 L453.48 7.00 L454.48 6.00 L455.48 5.00 L456.48 4.00 L457.48 3.00 L458.48 2.00 L459.48 1.00 L460.48 -0.00 " style="fill:none;stroke:#000000;stroke-width:1;" /><rect x="318.26" y="138.22" width="5.00" height="5.00" style="fill:#000000;stroke:none;" /><path d="" style="fill:none;stroke:#ff0000;stroke-width:1;" /><path d="M320.26 268.22 L320.26 268.22 L320.25 266.94 L320.23 265.66 L320.20 264.38 L320.16 263.10 L320.10 261.82 L320.03 260.54 L319.95 259.27 L319.85 257.99 L319.74 256.71 L319.62 255.44 L319.49 254.17 L319.34 252.90 L319.18 251.63 L319.01 250.36 L318.82 249.09 L318.62 247.83 L318.41 246.56 L318.19 245.30 L317.96 244.04 L317.71 242.79 L317.45 241.54 L317.17 240.29 L316.89 239.04 L316.59 237.79 L316.28 236.55 L315.96 235.31 L315.62 234.08 L315.27 232.84 L314.91 231.62 L314.54 230.39 L314.16 229.17 L313.76 227.95 L313.35 226.74 L312.93 225.53 L312.50 224.33 L312.05 223.13 L311.60 221.93 L311.13 220.74 L310.65 219.55 L310.16 218.37 L309.65 217.20 L309.13 216.03 L308.61 214.86 L308.07 213.70 L307.52 212.54 L306.95 211.39 L306.38 210.25 L305.79 209.11 L305.20 207.98 L304.59 206.85 L303.97 205.73 L303.34 204.62 L302.70 203.51 L302.05 202.41 L301.38 201.31 L300.71 200.23 L300.02 199.15 L299.33 198.07 L298.62 197.00 L297.90 195.94 L297.17 194.89 L296.44 193.85 L295.69 192.81 L294.93 191.78 L294.16 190.75 L293.38 189.74 L292.59 188.73 L291.79 187.73 L290.98 186.74 L290.16 185.76 L289.33 184.78 L288.49 183.82 L287.64 182.86 L286.78 181.91 L285.92 180.97 L285.04 180.04 L284.15 179.11 L283.26 178.20 " style="fill:none;stroke:#ff0000;stroke-width:1;" /></g></svg>